<svg xmlns="http://www.w3.org/2000/svg" viewBox="0 0 98.6 99.57"><title>主页</title><g id="图层_2" data-name="图层 2"><g id="图层_1-2" data-name="图层 1"><path d="M83.4,99.57H16.57a9,9,0,0,1-9-9V36.67a3,3,0,1,1,6,0v53.9a3,3,0,0,0,3,3H83.4a3,3,0,0,0,3-3V37.17a3,3,0,0,1,6,0v53.4A9,9,0,0,1,83.4,99.57Z"/><path d="M3,44a3,3,0,0,1-1.89-5.33L48,.71a3,3,0,0,1,3.78,4.66l-46.88,38A3,3,0,0,1,3,44Z"/><path d="M95.6,44a3,3,0,0,1-1.92-.7L48.26,5.3A3,3,0,0,1,52.12.7l45.41,38A3,3,0,0,1,95.6,44Z"/><path d="M74,98.16a3,3,0,0,1-3-3V75.53a3,3,0,0,0-3-3H33a3,3,0,0,0-3,3V95.16a3,3,0,0,1-6,0V75.53a9,9,0,0,1,9-9H68a9,9,0,0,1,9,9V95.16A3,3,0,0,1,74,98.16Z"/></g></g></svg>